<svg width="28" height="28" viewBox="0 0 28 28" fill="none" xmlns="http://www.w3.org/2000/svg">
<g clip-path="url(#clip0_111_194)">
<path d="M12.176 1C10.0173 1.3067 7.97096 2.15358 6.22684 3.4621C4.48273 4.77062 3.0973 6.4984 2.19906 8.48519C1.30082 10.472 0.918851 12.6534 1.08859 14.8272C1.25832 17.001 1.97426 19.0967 3.17 20.92L1 26.778L8.27 25.462C10.1398 26.3782 12.2032 26.8292 14.2848 26.7767C16.3663 26.7241 18.4043 26.1696 20.2255 25.1602C22.0467 24.1508 23.5971 22.7165 24.7449 20.9792C25.8927 19.242 26.6039 17.2532 26.818 15.182" stroke="url(#paint0_linear_111_194)" stroke-width="2" stroke-linecap="round" stroke-linejoin="round"/>
<path d="M21.968 11.01C22.622 11.01 23.2696 10.8812 23.8738 10.6309C24.478 10.3806 25.027 10.0138 25.4894 9.55138C25.9519 9.08894 26.3187 8.53995 26.569 7.93575C26.8192 7.33155 26.948 6.68397 26.948 6.02999C26.948 5.37601 26.8192 4.72843 26.569 4.12422C26.3187 3.52002 25.9519 2.97103 25.4894 2.5086C25.027 2.04616 24.478 1.67934 23.8738 1.42907C23.2696 1.1788 22.622 1.04999 21.968 1.04999C20.6473 1.04999 19.3806 1.57467 18.4466 2.5086C17.5127 3.44253 16.988 4.70921 16.988 6.02999C16.988 7.35077 17.5127 8.61745 18.4466 9.55138C19.3806 10.4853 20.6473 11.01 21.968 11.01Z" stroke="#42ADFF" stroke-width="2" stroke-linecap="round" stroke-linejoin="round"/>
</g>
<defs>
<linearGradient id="paint0_linear_111_194" x1="1" y1="13.8904" x2="26.818" y2="13.8904" gradientUnits="userSpaceOnUse">
<stop offset="0.485" stop-color="#0090FF"/>
<stop offset="0.806755" stop-color="#8A46F3"/>
<stop offset="1" stop-color="#D51DEC"/>
</linearGradient>
<clipPath id="clip0_111_194">
<rect width="28" height="28" fill="white"/>
</clipPath>
</defs>
</svg>
