<svg width="32" height="32" viewBox="0 0 32 32" fill="none" xmlns="http://www.w3.org/2000/svg">
<g clip-path="url(#clip0_111_207)">
<path d="M16 32C7.1635 32 0 24.8365 0 16C0 7.163 7.1635 0 16 0C24.837 0 32 7.163 32 16C32 24.8365 24.837 32 16 32ZM16 1.9685C8.2805 1.9685 2 8.2805 2 16.0001C2 23.7196 8.2805 30.0001 16 30.0001C23.7195 30.0001 30 23.7195 30 16.0001C30 8.28059 23.7195 1.9685 16 1.9685ZM23 17H17V23C17 23.552 16.552 24 16 24C15.448 24 15 23.552 15 23V17H9C8.448 17 8 16.552 8 16C8 15.448 8.448 15 9 15H15V9C15 8.448 15.448 8 16 8C16.552 8 17 8.448 17 9V15H23C23.552 15 24 15.448 24 16C24 16.552 23.552 17 23 17Z" fill="url(#paint0_linear_111_207)"/>
</g>
<defs>
<linearGradient id="paint0_linear_111_207" x1="0" y1="16" x2="32" y2="16" gradientUnits="userSpaceOnUse">
<stop offset="0.485" stop-color="#0090FF"/>
<stop offset="0.806755" stop-color="#8A46F3"/>
<stop offset="1" stop-color="#D51DEC"/>
</linearGradient>
<clipPath id="clip0_111_207">
<rect width="32" height="32" fill="white" transform="matrix(0 -1 -1 0 32 32)"/>
</clipPath>
</defs>
</svg>
